<svg width="742" height="469" viewBox="0 0 742 469" fill="none" xmlns="http://www.w3.org/2000/svg">
<g clip-path="url(#clip0)">
<rect width="742" height="469" fill="#090D72"/>
<rect x="50" y="24" width="654" height="377" fill="url(#paint0_radial)"/>
<path fill-rule="evenodd" clip-rule="evenodd" d="M265.727 169.093C256.624 177.811 244.277 183.167 230.679 183.167C202.69 183.167 180 160.477 180 132.488C180 116.116 187.763 101.558 199.81 92.2926C193.45 90.7933 186.818 90 180 90C132.504 90 94 128.504 94 176C94 223.496 132.504 262 180 262C227.496 262 266 223.496 266 176C266 173.675 265.908 171.372 265.727 169.093Z" fill="#FFED50"/>
<path d="M381.06 94.92C381.316 95.944 381.444 97.224 381.444 98.76C381.444 100.232 381.316 101.512 381.06 102.6C381.316 103.624 381.444 104.904 381.444 106.44C381.444 107.912 381.316 109.192 381.06 110.28C381.316 111.304 381.444 112.584 381.444 114.12C381.444 115.592 381.316 116.872 381.06 117.96C381.316 118.984 381.444 120.264 381.444 121.8C381.444 123.272 381.316 124.552 381.06 125.64C381.316 126.664 381.444 127.944 381.444 129.48C381.444 130.952 381.316 132.232 381.06 133.32C381.316 134.344 381.444 135.624 381.444 137.16C381.444 138.632 381.316 139.912 381.06 141H373.38C373.124 139.912 372.996 138.632 372.996 137.16C372.996 135.624 373.124 134.344 373.38 133.32H368.58C368.324 132.232 368.196 130.952 368.196 129.48C368.196 127.944 368.324 126.664 368.58 125.64H365.7C365.444 124.552 365.316 123.272 365.316 121.8C365.316 120.264 365.444 118.984 365.7 117.96H361.86C361.604 116.872 361.476 115.592 361.476 114.12C361.476 112.584 361.604 111.304 361.86 110.28H358.02C358.276 111.304 358.404 112.584 358.404 114.12C358.404 115.592 358.276 116.872 358.02 117.96C358.276 118.984 358.404 120.264 358.404 121.8C358.404 123.272 358.276 124.552 358.02 125.64C358.276 126.664 358.404 127.944 358.404 129.48C358.404 130.952 358.276 132.232 358.02 133.32C358.276 134.344 358.404 135.624 358.404 137.16C358.404 138.632 358.276 139.912 358.02 141H350.34C350.084 139.912 349.956 138.632 349.956 137.16C349.956 135.624 350.084 134.344 350.34 133.32C350.084 132.232 349.956 130.952 349.956 129.48C349.956 127.944 350.084 126.664 350.34 125.64C350.084 124.552 349.956 123.272 349.956 121.8C349.956 120.264 350.084 118.984 350.34 117.96C350.084 116.872 349.956 115.592 349.956 114.12C349.956 112.584 350.084 111.304 350.34 110.28C350.084 109.192 349.956 107.912 349.956 106.44C349.956 104.904 350.084 103.624 350.34 102.6C350.084 101.512 349.956 100.232 349.956 98.76C349.956 97.224 350.084 95.944 350.34 94.92C350.084 93.832 349.956 92.552 349.956 91.08C349.956 89.544 350.084 88.264 350.34 87.24H359.94C360.196 88.264 360.324 89.544 360.324 91.08C360.324 92.552 360.196 93.832 359.94 94.92H362.82C363.076 95.944 363.204 97.224 363.204 98.76C363.204 100.232 363.076 101.512 362.82 102.6H365.7C365.956 103.624 366.084 104.904 366.084 106.44C366.084 107.912 365.956 109.192 365.7 110.28H369.54C369.796 111.304 369.924 112.584 369.924 114.12C369.924 115.592 369.796 116.872 369.54 117.96H373.38C373.124 116.872 372.996 115.592 372.996 114.12C372.996 112.584 373.124 111.304 373.38 110.28C373.124 109.192 372.996 107.912 372.996 106.44C372.996 104.904 373.124 103.624 373.38 102.6C373.124 101.512 372.996 100.232 372.996 98.76C372.996 97.224 373.124 95.944 373.38 94.92C373.124 93.832 372.996 92.552 372.996 91.08C372.996 89.544 373.124 88.264 373.38 87.24H381.06C381.316 88.264 381.444 89.544 381.444 91.08C381.444 92.552 381.316 93.832 381.06 94.92ZM400.298 94.92C400.042 93.832 399.914 92.552 399.914 91.08C399.914 89.544 400.042 88.264 400.298 87.24H407.978C408.234 88.264 408.362 89.544 408.362 91.08C408.362 92.552 408.234 93.832 407.978 94.92H400.298ZM415.658 133.32C415.914 134.344 416.042 135.624 416.042 137.16C416.042 138.632 415.914 139.912 415.658 141H392.618C392.362 139.912 392.234 138.632 392.234 137.16C392.234 135.624 392.362 134.344 392.618 133.32H400.298C400.042 132.232 399.914 130.952 399.914 129.48C399.914 127.944 400.042 126.664 400.298 125.64C400.042 124.552 399.914 123.272 399.914 121.8C399.914 120.264 400.042 118.984 400.298 117.96C400.042 116.872 399.914 115.592 399.914 114.12C399.914 112.584 400.042 111.304 400.298 110.28H394.538C394.282 109.192 394.154 107.912 394.154 106.44C394.154 104.904 394.282 103.624 394.538 102.6H407.978C408.234 103.624 408.362 104.904 408.362 106.44C408.362 107.912 408.234 109.192 407.978 110.28C408.234 111.304 408.362 112.584 408.362 114.12C408.362 115.592 408.234 116.872 407.978 117.96C408.234 118.984 408.362 120.264 408.362 121.8C408.362 123.272 408.234 124.552 407.978 125.64C408.234 126.664 408.362 127.944 408.362 129.48C408.362 130.952 408.234 132.232 407.978 133.32H415.658ZM457.935 110.28C458.191 111.304 458.319 112.584 458.319 114.12C458.319 115.592 458.191 116.872 457.935 117.96C458.191 118.984 458.319 120.264 458.319 121.8C458.319 123.272 458.191 124.552 457.935 125.64C458.191 126.664 458.319 127.944 458.319 129.48C458.319 130.952 458.191 132.232 457.935 133.32C458.191 134.344 458.319 135.624 458.319 137.16C458.319 138.632 458.191 139.912 457.935 141H454.095C454.351 142.024 454.479 143.304 454.479 144.84C454.479 146.312 454.351 147.592 454.095 148.68H450.255C450.511 149.704 450.639 150.984 450.639 152.52C450.639 153.992 450.511 155.272 450.255 156.36H434.895C434.639 155.272 434.511 153.992 434.511 152.52C434.511 150.984 434.639 149.704 434.895 148.68H446.415C446.159 147.592 446.031 146.312 446.031 144.84C446.031 143.304 446.159 142.024 446.415 141H450.255C449.999 139.912 449.871 138.632 449.871 137.16C449.871 135.624 449.999 134.344 450.255 133.32H446.415C446.159 132.232 446.031 130.952 446.031 129.48C446.031 127.944 446.159 126.664 446.415 125.64H450.255C449.999 124.552 449.871 123.272 449.871 121.8C449.871 120.264 449.999 118.984 450.255 117.96C449.999 116.872 449.871 115.592 449.871 114.12C449.871 112.584 449.999 111.304 450.255 110.28H437.775C438.031 111.304 438.159 112.584 438.159 114.12C438.159 115.592 438.031 116.872 437.775 117.96H434.895C435.151 118.984 435.279 120.264 435.279 121.8C435.279 123.272 435.151 124.552 434.895 125.64H437.775C438.031 126.664 438.159 127.944 438.159 129.48C438.159 130.952 438.031 132.232 437.775 133.32H446.415C446.671 134.344 446.799 135.624 446.799 137.16C446.799 138.632 446.671 139.912 446.415 141H434.895C434.639 139.912 434.511 138.632 434.511 137.16C434.511 135.624 434.639 134.344 434.895 133.32H430.095C429.839 132.232 429.711 130.952 429.711 129.48C429.711 127.944 429.839 126.664 430.095 125.64H427.215C426.959 124.552 426.831 123.272 426.831 121.8C426.831 120.264 426.959 118.984 427.215 117.96H430.095C429.839 116.872 429.711 115.592 429.711 114.12C429.711 112.584 429.839 111.304 430.095 110.28H434.895C434.639 109.192 434.511 107.912 434.511 106.44C434.511 104.904 434.639 103.624 434.895 102.6H457.935C458.191 103.624 458.319 104.904 458.319 106.44C458.319 107.912 458.191 109.192 457.935 110.28ZM473.717 106.44C473.717 107.912 473.589 109.192 473.333 110.28H476.213C476.469 111.304 476.597 112.584 476.597 114.12C476.597 115.592 476.469 116.872 476.213 117.96H473.333C473.589 118.984 473.717 120.264 473.717 121.8C473.717 123.272 473.589 124.552 473.333 125.64C473.589 126.664 473.717 127.944 473.717 129.48C473.717 130.952 473.589 132.232 473.333 133.32C473.589 134.344 473.717 135.624 473.717 137.16C473.717 138.632 473.589 139.912 473.333 141H465.653C465.397 139.912 465.269 138.632 465.269 137.16C465.269 135.624 465.397 134.344 465.653 133.32C465.397 132.232 465.269 130.952 465.269 129.48C465.269 127.944 465.397 126.664 465.653 125.64C465.397 124.552 465.269 123.272 465.269 121.8C465.269 120.264 465.397 118.984 465.653 117.96C465.397 116.872 465.269 115.592 465.269 114.12C465.269 112.584 465.397 111.304 465.653 110.28C465.397 109.192 465.269 107.912 465.269 106.44C465.269 104.904 465.397 103.624 465.653 102.6C465.397 101.512 465.269 100.232 465.269 98.76C465.269 97.224 465.397 95.944 465.653 94.92C465.397 93.832 465.269 92.552 465.269 91.08C465.269 89.544 465.397 88.264 465.653 87.24H473.333C473.589 88.264 473.717 89.544 473.717 91.08C473.717 92.552 473.589 93.832 473.333 94.92C473.589 95.944 473.717 97.224 473.717 98.76C473.717 100.232 473.589 101.512 473.333 102.6C473.589 103.624 473.717 104.904 473.717 106.44ZM496.373 117.96C496.629 118.984 496.757 120.264 496.757 121.8C496.757 123.272 496.629 124.552 496.373 125.64C496.629 126.664 496.757 127.944 496.757 129.48C496.757 130.952 496.629 132.232 496.373 133.32C496.629 134.344 496.757 135.624 496.757 137.16C496.757 138.632 496.629 139.912 496.373 141H488.693C488.437 139.912 488.309 138.632 488.309 137.16C488.309 135.624 488.437 134.344 488.693 133.32C488.437 132.232 488.309 130.952 488.309 129.48C488.309 127.944 488.437 126.664 488.693 125.64C488.437 124.552 488.309 123.272 488.309 121.8C488.309 120.264 488.437 118.984 488.693 117.96C488.437 116.872 488.309 115.592 488.309 114.12C488.309 112.584 488.437 111.304 488.693 110.28H476.213C475.957 109.192 475.829 107.912 475.829 106.44C475.829 104.904 475.957 103.624 476.213 102.6H491.573C491.829 103.624 491.957 104.904 491.957 106.44C491.957 107.912 491.829 109.192 491.573 110.28H496.373C496.629 111.304 496.757 112.584 496.757 114.12C496.757 115.592 496.629 116.872 496.373 117.96ZM530.97 133.32C531.226 134.344 531.354 135.624 531.354 137.16C531.354 138.632 531.226 139.912 530.97 141H515.61C515.354 139.912 515.226 138.632 515.226 137.16C515.226 135.624 515.354 134.344 515.61 133.32H511.77C511.514 132.232 511.386 130.952 511.386 129.48C511.386 127.944 511.514 126.664 511.77 125.64C511.514 124.552 511.386 123.272 511.386 121.8C511.386 120.264 511.514 118.984 511.77 117.96C511.514 116.872 511.386 115.592 511.386 114.12C511.386 112.584 511.514 111.304 511.77 110.28H504.09C503.834 109.192 503.706 107.912 503.706 106.44C503.706 104.904 503.834 103.624 504.09 102.6H511.77C511.514 101.512 511.386 100.232 511.386 98.76C511.386 97.224 511.514 95.944 511.77 94.92C511.514 93.832 511.386 92.552 511.386 91.08C511.386 89.544 511.514 88.264 511.77 87.24H519.45C519.706 88.264 519.834 89.544 519.834 91.08C519.834 92.552 519.706 93.832 519.45 94.92C519.706 95.944 519.834 97.224 519.834 98.76C519.834 100.232 519.706 101.512 519.45 102.6H530.97C531.226 103.624 531.354 104.904 531.354 106.44C531.354 107.912 531.226 109.192 530.97 110.28H519.45C519.706 111.304 519.834 112.584 519.834 114.12C519.834 115.592 519.706 116.872 519.45 117.96C519.706 118.984 519.834 120.264 519.834 121.8C519.834 123.272 519.706 124.552 519.45 125.64C519.706 126.664 519.834 127.944 519.834 129.48C519.834 130.952 519.706 132.232 519.45 133.32H530.97ZM612.069 121.8C612.069 123.272 611.941 124.552 611.685 125.64H608.805C609.061 126.664 609.189 127.944 609.189 129.48C609.189 130.952 609.061 132.232 608.805 133.32H604.005C604.261 134.344 604.389 135.624 604.389 137.16C604.389 138.632 604.261 139.912 604.005 141H588.645C588.389 139.912 588.261 138.632 588.261 137.16C588.261 135.624 588.389 134.344 588.645 133.32H583.845C583.589 132.232 583.461 130.952 583.461 129.48C583.461 127.944 583.589 126.664 583.845 125.64H580.965C580.709 124.552 580.581 123.272 580.581 121.8C580.581 120.264 580.709 118.984 580.965 117.96H583.845C583.589 116.872 583.461 115.592 583.461 114.12C583.461 112.584 583.589 111.304 583.845 110.28H588.645C588.389 109.192 588.261 107.912 588.261 106.44C588.261 104.904 588.389 103.624 588.645 102.6H604.005C604.261 103.624 604.389 104.904 604.389 106.44C604.389 107.912 604.261 109.192 604.005 110.28H608.805C609.061 111.304 609.189 112.584 609.189 114.12C609.189 115.592 609.061 116.872 608.805 117.96H611.685C611.941 118.984 612.069 120.264 612.069 121.8ZM604.005 125.64C603.749 124.552 603.621 123.272 603.621 121.8C603.621 120.264 603.749 118.984 604.005 117.96H601.125C600.869 116.872 600.741 115.592 600.741 114.12C600.741 112.584 600.869 111.304 601.125 110.28H591.525C591.781 111.304 591.909 112.584 591.909 114.12C591.909 115.592 591.781 116.872 591.525 117.96H588.645C588.901 118.984 589.029 120.264 589.029 121.8C589.029 123.272 588.901 124.552 588.645 125.64H591.525C591.781 126.664 591.909 127.944 591.909 129.48C591.909 130.952 591.781 132.232 591.525 133.32H601.125C600.869 132.232 600.741 130.952 600.741 129.48C600.741 127.944 600.869 126.664 601.125 125.64H604.005ZM646.283 102.6C646.539 103.624 646.667 104.904 646.667 106.44C646.667 107.912 646.539 109.192 646.283 110.28H634.763C635.019 111.304 635.147 112.584 635.147 114.12C635.147 115.592 635.019 116.872 634.763 117.96C635.019 118.984 635.147 120.264 635.147 121.8C635.147 123.272 635.019 124.552 634.763 125.64C635.019 126.664 635.147 127.944 635.147 129.48C635.147 130.952 635.019 132.232 634.763 133.32H642.443C642.699 134.344 642.827 135.624 642.827 137.16C642.827 138.632 642.699 139.912 642.443 141H623.243C622.987 139.912 622.859 138.632 622.859 137.16C622.859 135.624 622.987 134.344 623.243 133.32H627.083C626.827 132.232 626.699 130.952 626.699 129.48C626.699 127.944 626.827 126.664 627.083 125.64C626.827 124.552 626.699 123.272 626.699 121.8C626.699 120.264 626.827 118.984 627.083 117.96C626.827 116.872 626.699 115.592 626.699 114.12C626.699 112.584 626.827 111.304 627.083 110.28H623.243C622.987 109.192 622.859 107.912 622.859 106.44C622.859 104.904 622.987 103.624 623.243 102.6H627.083C626.827 101.512 626.699 100.232 626.699 98.76C626.699 97.224 626.827 95.944 627.083 94.92H630.923C630.667 93.832 630.539 92.552 630.539 91.08C630.539 89.544 630.667 88.264 630.923 87.24H646.283C646.539 88.264 646.667 89.544 646.667 91.08C646.667 92.552 646.539 93.832 646.283 94.92H634.763C635.019 95.944 635.147 97.224 635.147 98.76C635.147 100.232 635.019 101.512 634.763 102.6H646.283Z" fill="#FFED50"/>
<g clip-path="url(#clip1)">
<rect x="581" y="242" width="22" height="217" fill="#2F6779"/>
<rect x="603" y="242" width="51" height="217" fill="#002A48"/>
<rect x="614" y="254" width="8" height="15" fill="black"/>
<rect x="638" y="254" width="8" height="15" fill="black"/>
<rect x="614" y="278" width="8" height="15" fill="#FFED50"/>
<rect x="638" y="278" width="8" height="15" fill="#FFED50"/>
<rect x="614" y="302" width="8" height="15" fill="black"/>
<rect x="638" y="302" width="8" height="15" fill="black"/>
<rect x="614" y="326" width="8" height="15" fill="#FFED50"/>
<rect x="638" y="326" width="8" height="15" fill="black"/>
<rect x="614" y="350" width="8" height="15" fill="black"/>
<rect x="638" y="350" width="8" height="15" fill="#FFED50"/>
<rect x="614" y="374" width="8" height="15" fill="#FFED50"/>
<rect x="638" y="374" width="8" height="15" fill="black"/>
</g>
<g clip-path="url(#clip2)">
<rect x="533" y="266" width="22" height="217" fill="#2F6779"/>
<rect x="555" y="266" width="51" height="217" fill="#002A48"/>
<rect x="566" y="278" width="8" height="15" fill="black"/>
<rect x="590" y="278" width="8" height="15" fill="#FFED50"/>
<rect x="566" y="302" width="8" height="15" fill="#FFED50"/>
<rect x="590" y="302" width="8" height="15" fill="black"/>
<rect x="566" y="326" width="8" height="15" fill="black"/>
<rect x="590" y="326" width="8" height="15" fill="#FFED50"/>
<rect x="566" y="350" width="8" height="15" fill="black"/>
<rect x="590" y="350" width="8" height="15" fill="black"/>
<rect x="566" y="374" width="8" height="15" fill="#FFED50"/>
<rect x="590" y="374" width="8" height="15" fill="#FFED50"/>
</g>
<g clip-path="url(#clip3)">
<rect x="472" y="218" width="22" height="217" fill="#4894AC"/>
<rect x="494" y="218" width="51" height="217" fill="#002A48"/>
<rect x="505" y="230" width="8" height="15" fill="black"/>
<rect x="529" y="230" width="8" height="15" fill="black"/>
<rect x="505" y="254" width="8" height="15" fill="black"/>
<rect x="529" y="254" width="8" height="15" fill="#FFED50"/>
<rect x="505" y="278" width="8" height="15" fill="#FFED50"/>
<rect x="529" y="278" width="8" height="15" fill="black"/>
<rect x="505" y="302" width="8" height="15" fill="black"/>
<rect x="529" y="302" width="8" height="15" fill="black"/>
<rect x="505" y="326" width="8" height="15" fill="#FFED50"/>
<rect x="529" y="326" width="8" height="15" fill="black"/>
<rect x="505" y="350" width="8" height="15" fill="black"/>
<rect x="529" y="350" width="8" height="15" fill="#FFED50"/>
<rect x="505" y="374" width="8" height="15" fill="black"/>
<rect x="529" y="374" width="8" height="15" fill="#FFED50"/>
</g>
<g clip-path="url(#clip4)">
<rect x="421" y="194" width="22" height="217" fill="#2F6779"/>
<rect x="443" y="194" width="51" height="217" fill="#002A48"/>
<rect x="454" y="206" width="8" height="15" fill="black"/>
<rect x="478" y="206" width="8" height="15" fill="black"/>
<rect x="454" y="230" width="8" height="15" fill="black"/>
<rect x="478" y="230" width="8" height="15" fill="black"/>
<rect x="454" y="254" width="8" height="15" fill="#FFED50"/>
<rect x="478" y="254" width="8" height="15" fill="black"/>
<rect x="454" y="278" width="8" height="15" fill="#FFED50"/>
<rect x="478" y="278" width="8" height="15" fill="black"/>
<rect x="454" y="302" width="8" height="15" fill="#FFED50"/>
<rect x="478" y="302" width="8" height="15" fill="#FFED50"/>
<rect x="454" y="326" width="8" height="15" fill="#FFED50"/>
<rect x="478" y="326" width="8" height="15" fill="black"/>
<rect x="454" y="350" width="8" height="15" fill="#FFED50"/>
<rect x="478" y="350" width="8" height="15" fill="black"/>
<rect x="454" y="375" width="8" height="15" fill="#FFED50"/>
<rect x="478" y="375" width="8" height="15" fill="black"/>
</g>
<g clip-path="url(#clip5)">
<rect x="360" y="242" width="22" height="217" fill="#2F6779"/>
<rect x="382" y="242" width="51" height="217" fill="#002A48"/>
<rect x="393" y="254" width="8" height="15" fill="black"/>
<rect x="417" y="254" width="8" height="15" fill="black"/>
<rect x="393" y="278" width="8" height="15" fill="black"/>
<rect x="417" y="278" width="8" height="15" fill="black"/>
<rect x="393" y="302" width="8" height="15" fill="#FFED50"/>
<rect x="417" y="302" width="8" height="15" fill="#FFED50"/>
<rect x="393" y="326" width="8" height="15" fill="black"/>
<rect x="417" y="326" width="8" height="15" fill="black"/>
<rect x="393" y="350" width="8" height="15" fill="black"/>
<rect x="417" y="350" width="8" height="15" fill="black"/>
<rect x="393" y="374" width="8" height="15" fill="#FFED50"/>
<rect x="417" y="374" width="8" height="15" fill="#FFED50"/>
</g>
<g clip-path="url(#clip6)">
<rect x="312" y="266" width="22" height="217" fill="#2F6779"/>
<rect x="334" y="266" width="51" height="217" fill="#002A48"/>
<rect x="345" y="278" width="8" height="15" fill="black"/>
<rect x="369" y="278" width="8" height="15" fill="black"/>
<rect x="345" y="302" width="8" height="15" fill="#FFED50"/>
<rect x="369" y="302" width="8" height="15" fill="#FFED50"/>
<rect x="345" y="326" width="8" height="15" fill="#FFED50"/>
<rect x="369" y="326" width="8" height="15" fill="black"/>
<rect x="345" y="350" width="8" height="15" fill="#FFED50"/>
<rect x="369" y="350" width="8" height="15" fill="black"/>
<rect x="345" y="374" width="8" height="15" fill="#FFED50"/>
<rect x="369" y="374" width="8" height="15" fill="#FFED50"/>
</g>
<g clip-path="url(#clip7)">
<rect x="251" y="289" width="22" height="217" fill="#2F6779"/>
<rect x="273" y="289" width="51" height="217" fill="#002A48"/>
<rect x="284" y="301" width="8" height="15" fill="#FFED50"/>
<rect x="308" y="301" width="8" height="15" fill="black"/>
<rect x="284" y="325" width="8" height="15" fill="#FFED50"/>
<rect x="308" y="325" width="8" height="15" fill="black"/>
<rect x="284" y="349" width="8" height="15" fill="#FFED50"/>
<rect x="308" y="349" width="8" height="15" fill="black"/>
<rect x="284" y="373" width="8" height="15" fill="#FFED50"/>
<rect x="308" y="373" width="8" height="15" fill="#FFED50"/>
</g>
<g clip-path="url(#clip8)">
<rect x="200" y="194" width="22" height="217" fill="#2F6779"/>
<rect x="222" y="194" width="51" height="217" fill="#002A48"/>
<rect x="233" y="206" width="8" height="15" fill="black"/>
<rect x="257" y="206" width="8" height="15" fill="black"/>
<rect x="233" y="230" width="8" height="15" fill="black"/>
<rect x="257" y="230" width="8" height="15" fill="black"/>
<rect x="233" y="254" width="8" height="15" fill="black"/>
<rect x="257" y="254" width="8" height="15" fill="black"/>
<rect x="233" y="278" width="8" height="15" fill="black"/>
<rect x="257" y="278" width="8" height="15" fill="black"/>
<rect x="233" y="302" width="8" height="15" fill="#FFED50"/>
<rect x="257" y="302" width="8" height="15" fill="#FFED50"/>
<rect x="233" y="326" width="8" height="15" fill="black"/>
<rect x="257" y="326" width="8" height="15" fill="black"/>
<rect x="233" y="350" width="8" height="15" fill="#FFED50"/>
<rect x="257" y="350" width="8" height="15" fill="#FFED50"/>
<rect x="233" y="374" width="8" height="15" fill="#FFED50"/>
<rect x="257" y="374" width="8" height="15" fill="#FFED50"/>
</g>
<rect x="139" y="242" width="22" height="161" fill="#4894AC"/>
<rect x="161" y="242" width="51" height="161" fill="#002A48"/>
<rect x="172" y="254" width="8" height="15" fill="black"/>
<rect x="196" y="254" width="8" height="15" fill="black"/>
<rect x="172" y="278" width="8" height="15" fill="black"/>
<rect x="196" y="278" width="8" height="15" fill="black"/>
<rect x="172" y="302" width="8" height="15" fill="#FFED50"/>
<rect x="196" y="302" width="8" height="15" fill="#FFED50"/>
<rect x="172" y="326" width="8" height="15" fill="black"/>
<rect x="196" y="326" width="8" height="15" fill="#FFED50"/>
<rect x="172" y="350" width="8" height="15" fill="black"/>
<rect x="196" y="350" width="8" height="15" fill="#FFED50"/>
<rect x="172" y="374" width="8" height="15" fill="black"/>
<rect x="196" y="374" width="8" height="15" fill="#FFED50"/>
<rect x="88" y="242" width="22" height="161" fill="#2F6779"/>
<rect x="110" y="242" width="51" height="161" fill="#002A48"/>
<rect x="121" y="254" width="8" height="15" fill="#FFED50"/>
<rect x="145" y="254" width="8" height="15" fill="black"/>
<rect x="121" y="278" width="8" height="15" fill="#FFED50"/>
<rect x="145" y="278" width="8" height="15" fill="black"/>
<rect x="121" y="302" width="8" height="15" fill="#FFED50"/>
<rect x="145" y="302" width="8" height="15" fill="#FFED50"/>
<rect x="121" y="326" width="8" height="15" fill="#FFED50"/>
<rect x="145" y="326" width="8" height="15" fill="black"/>
<rect x="121" y="350" width="8" height="15" fill="#FFED50"/>
<rect x="145" y="350" width="8" height="15" fill="black"/>
<rect x="121" y="374" width="8" height="15" fill="#FFED50"/>
<rect x="145" y="374" width="8" height="15" fill="black"/>
</g>
<defs>
<radialGradient id="paint0_radial" cx="0" cy="0" r="1" gradientUnits="userSpaceOnUse" gradientTransform="translate(377 401) rotate(90) scale(336 316.461)">
<stop stop-color="#9FEFFA"/>
<stop offset="1" stop-color="#C4C4C4" stop-opacity="0"/>
</radialGradient>
<clipPath id="clip0">
<rect width="742" height="469" fill="white"/>
</clipPath>
<clipPath id="clip1">
<rect width="73" height="161" fill="white" transform="translate(581 242)"/>
</clipPath>
<clipPath id="clip2">
<rect width="73" height="137" fill="white" transform="translate(533 266)"/>
</clipPath>
<clipPath id="clip3">
<rect width="73" height="185" fill="white" transform="translate(472 218)"/>
</clipPath>
<clipPath id="clip4">
<rect width="73" height="209" fill="white" transform="translate(421 194)"/>
</clipPath>
<clipPath id="clip5">
<rect width="73" height="161" fill="white" transform="translate(360 242)"/>
</clipPath>
<clipPath id="clip6">
<rect width="73" height="137" fill="white" transform="translate(312 266)"/>
</clipPath>
<clipPath id="clip7">
<rect width="73" height="114" fill="white" transform="translate(251 289)"/>
</clipPath>
<clipPath id="clip8">
<rect width="73" height="209" fill="white" transform="translate(200 194)"/>
</clipPath>
</defs>
</svg>
